<?xml version="1.0" encoding="UTF-8"?>
<svg xmlns="http://www.w3.org/2000/svg" viewBox="0 0 400 400" width="400" height="400">

  <!-- Container square -->
  <rect width="400" height="400" rx="32" fill="#1A1A1A"/>
  <rect x="1" y="1" width="398" height="398" rx="32" fill="none" stroke="#272727" stroke-width="2"/>

  <!-- J letter (scaled 5x from 80x80) -->
  <path d="M90 120h60v150c0 25-15 37.5-37.5 37.5S75 295 75 270h30c0 6.5 3 10 7.5 10s7.5-3.5 7.5-10V120z" fill="#F0EBE0"/>

  <!-- G letter (scaled 5x from 80x80) -->
  <path d="M170 200c0-52.5 37.5-90 87.5-90 25 0 47.5 10 62.5 26l-20 19c-9-10-21-16-35-16c-32.5 0-56 24-56 61s23.5 61 56 61c17.5 0 32.5-7.5 41.5-20V220h-42v-32.5h70v64C308.5 277.5 283 290 260 290c-51.5 0-90-37.5-90-90z" fill="#C8391A"/>

  <!-- Diagonal gold line -->
  <path d="M50 350 L350 50" stroke="#B8922A" stroke-width="12" stroke-linecap="round" opacity="0.45"/>
</svg>
